<svg width="745" height="328" viewBox="0 0 745 328" fill="none" xmlns="http://www.w3.org/2000/svg">
<path d="M631.056 19.6028C626.704 7.82248 615.474 0 602.915 0H-4.76837e-06V328H701.934C722.818 328 737.312 307.193 730.074 287.603L631.056 19.6028Z" fill="url(#paint0_linear_4_8)"/>
<path d="M98.8778 241.868C98.873 244.855 98.1432 247.627 96.6884 250.184C95.1483 252.742 93.1397 254.787 90.6625 256.319C88.1002 257.765 85.283 258.486 82.211 258.481L76.835 258.472L76.8573 244.648L81.8493 244.657C82.7026 244.658 83.4711 244.36 84.1547 243.764C84.7532 243.083 85.0531 242.315 85.0545 241.462L85.1482 183.35C85.1495 182.496 84.852 181.771 84.2557 181.172C83.574 180.574 82.8064 180.274 81.9531 180.273L63.0091 180.242C62.0705 180.241 61.302 180.538 60.7037 181.134C60.1054 181.731 59.8056 182.456 59.8042 183.309L59.7099 241.805C59.7051 244.791 58.9753 247.564 57.5205 250.121C55.9803 252.679 53.9717 254.724 51.4946 256.256C48.9322 257.702 46.1151 258.423 43.0431 258.418L23.3311 258.386C20.2591 258.381 17.4869 257.651 15.0146 256.197C12.4571 254.657 10.4551 252.605 9.00853 250.043C7.47665 247.481 6.71313 244.706 6.71794 241.719L6.81287 182.839C6.81769 179.853 7.59016 177.081 9.13028 174.523C10.5851 171.966 12.5936 169.963 15.156 168.517C17.6331 166.985 20.4077 166.221 23.4797 166.226L28.8557 166.235L28.8332 180.187L23.8412 180.179C22.9879 180.178 22.262 180.475 21.6637 181.071C20.9801 181.668 20.6376 182.392 20.6362 183.246L20.5425 241.358C20.5412 242.211 20.8813 242.98 21.5628 243.663C22.1592 244.262 22.884 244.561 23.7374 244.563L42.6814 244.593C43.62 244.595 44.3885 244.297 44.9868 243.701C45.5852 243.019 45.8851 242.252 45.8865 241.399L45.9808 182.903C45.9856 179.916 46.7581 177.144 48.2982 174.586C49.753 172.029 51.7616 170.027 54.3239 168.58C56.8011 167.048 59.5756 166.284 62.6476 166.289L82.3596 166.321C85.4316 166.326 88.2464 167.099 90.8039 168.639C93.2762 170.093 95.2783 172.102 96.8102 174.665C98.2567 177.227 98.9776 180.001 98.9728 182.988L98.8778 241.868ZM99.0776 117.936L20.7417 117.81L20.6786 156.978L6.8546 156.955L7.00319 64.7956L20.8272 64.8179L20.764 103.986L99.0999 104.112L99.0776 117.936Z" fill="#A2F11C"/>
<defs>
<linearGradient id="paint0_linear_4_8" x1="685.4" y1="164" x2="-1.48359e-05" y2="164" gradientUnits="userSpaceOnUse">
<stop stop-color="#D1FF82"/>
<stop offset="0.58" stop-color="#B4FF35"/>
</linearGradient>
</defs>
</svg>
