<svg width="745" height="328" viewBox="0 0 745 328" fill="none" xmlns="http://www.w3.org/2000/svg">
<path d="M113.944 19.6028C118.296 7.82248 129.526 0 142.085 0H745V328H43.0663C22.1819 328 7.68766 307.193 14.9256 287.603L113.944 19.6028Z" fill="url(#paint0_linear_2_7)"/>
<path d="M740.148 241.223C740.201 244.209 739.525 246.995 738.119 249.58C736.629 252.166 734.66 254.249 732.213 255.829C729.679 257.324 726.876 258.099 723.804 258.153L718.429 258.248L718.185 244.426L723.177 244.338C724.03 244.323 724.792 244.011 725.465 243.402C726.05 242.709 726.335 241.936 726.32 241.082L725.295 182.979C725.28 182.126 724.969 181.406 724.361 180.82C723.668 180.234 722.895 179.949 722.041 179.964L703.1 180.298C702.162 180.315 701.399 180.627 700.813 181.235C700.226 181.843 699.94 182.573 699.955 183.426L700.986 241.913C701.039 244.899 700.363 247.685 698.957 250.27C697.467 252.857 695.498 254.94 693.051 256.519C690.517 258.015 687.714 258.79 684.642 258.844L664.934 259.192C661.862 259.246 659.076 258.57 656.576 257.163C653.99 255.672 651.949 253.66 650.453 251.126C648.872 248.593 648.055 245.834 648.003 242.848L646.964 183.977C646.912 180.991 647.631 178.204 649.121 175.617C650.527 173.032 652.496 170.992 655.03 169.496C657.478 167.917 660.237 167.1 663.309 167.046L668.684 166.951L668.93 180.901L663.938 180.989C663.085 181.004 662.365 181.316 661.779 181.923C661.107 182.533 660.778 183.264 660.793 184.117L661.818 242.22C661.833 243.073 662.188 243.835 662.882 244.506C663.49 245.092 664.221 245.378 665.074 245.363L684.015 245.029C684.953 245.012 685.716 244.7 686.303 244.093C686.888 243.399 687.173 242.626 687.158 241.773L686.126 183.286C686.074 180.3 686.793 177.514 688.283 174.927C689.689 172.342 691.658 170.301 694.192 168.806C696.64 167.226 699.399 166.41 702.47 166.355L722.179 166.008C725.251 165.954 728.08 166.672 730.667 168.162C733.167 169.569 735.207 171.539 736.788 174.071C738.283 176.605 739.058 179.366 739.11 182.352L740.148 241.223ZM737.963 117.31L659.639 118.691L660.33 157.853L646.508 158.097L644.883 65.9512L658.705 65.7074L659.396 104.869L737.719 103.488L737.963 117.31Z" fill="#A2F11C"/>
<defs>
<linearGradient id="paint0_linear_2_7" x1="59.6" y1="164" x2="745" y2="164" gradientUnits="userSpaceOnUse">
<stop stop-color="#D1FF82"/>
<stop offset="0.58" stop-color="#B4FF35"/>
</linearGradient>
</defs>
</svg>
